/* XPM */
static char *mozicon50[] = {
/* columns rows colors chars-per-pixel */
"48 48 256 2 ",
"   c #0A0A0B",
".  c #181818",
"X  c #3D3D3D",
"o  c #2C2C2C",
"O  c #3A6D15",
"+  c #3F6B3C",
"@  c #406C3A",
"#  c #4A7D3A",
"$  c #2A3948",
"%  c #4E4E4E",
"&  c #416948",
"*  c #467546",
"=  c #445C7B",
"-  c #46656B",
";  c #426662",
":  c #57626F",
">  c #6A6A6A",
",  c gray44",
"<  c #251C8B",
"1  c #2E2898",
"2  c #333798",
"3  c #2012A2",
"4  c #2616B4",
"5  c #2718B4",
"6  c #2A1BB5",
"7  c #2B1CBC",
"8  c #2718B8",
"9  c #2F21AD",
"0  c #2C25B2",
"q  c #3325B7",
"w  c #3426BA",
"e  c #3729BD",
"r  c #3A2CBB",
"t  c #392BB6",
"y  c #3E31BD",
"u  c #3E3CB7",
"i  c #3C3FA6",
"p  c #453AA9",
"a  c #4235BD",
"s  c #4A3DBE",
"d  c #4538BD",
"f  c #3B4688",
"g  c #3E4997",
"h  c #3F5383",
"j  c #3F46A0",
"k  c #425688",
"l  c #454697",
"z  c #475598",
"x  c #536B95",
"c  c #64639D",
"v  c #444CA3",
"b  c #4544A8",
"n  c #5147A9",
"m  c #4944BA",
"M  c #5245BE",
"N  c #5A50B6",
"B  c #665DBF",
"V  c #4F61AD",
"C  c #596AA7",
"Z  c #4471AB",
"A  c #5E74AA",
"S  c #4E63BA",
"D  c #5367BB",
"F  c #547DB3",
"G  c #5974BA",
"H  c #4F7AB0",
"J  c #6775A9",
"K  c #6678B4",
"L  c #7876B8",
"P  c #6D74A6",
"I  c #2E1EC1",
"U  c #2F20C2",
"Y  c #3222C4",
"T  c #3B2DC4",
"R  c #3424C9",
"E  c #3629CC",
"W  c #3A2CCB",
"Q  c #3E30C3",
"!  c #3A31CA",
"~  c #3A2BD2",
"^  c #4335C3",
"/  c #4539C2",
"(  c #4B3DC5",
")  c #4234CB",
"_  c #493DCA",
"`  c #4739CA",
"'  c #493BD4",
"]  c #3E43C3",
"[  c #4D42C3",
"{  c #4A4DC6",
"}  c #5144C3",
"|  c #564AC2",
" . c #5A4EC4",
".. c #5346CB",
"X. c #564ACB",
"o. c #5A4ECB",
"O. c #5E53C3",
"+. c #5D53CC",
"@. c #5D58CC",
"#. c #4E40D2",
"$. c #5A4DD4",
"%. c #554AD3",
"&. c #5E54D3",
"*. c #6256C6",
"=. c #6459C5",
"-. c #655ACC",
";. c #695FCB",
":. c #6459C7",
">. c #6356D2",
",. c #6559D4",
"<. c #665ADA",
"1. c #6A5FDC",
"2. c #566BC1",
"3. c #6C63C6",
"4. c #6D63CB",
"5. c #656EC4",
"6. c #756CCC",
"7. c #796FCE",
"8. c #7167CA",
"9. c #6B79C6",
"0. c #7C73CD",
"q. c #7E76C1",
"w. c #6E63D4",
"e. c #6B65D7",
"r. c #746BD2",
"t. c #756BDC",
"y. c #796EDB",
"u. c #7D73D3",
"i. c #7B72DC",
"p. c #7D75E2",
"a. c #827EB5",
"s. c #827ACF",
"d. c #8077CF",
"f. c #847CD2",
"g. c #857CD8",
"h. c #837BE2",
"j. c #887EE1",
"k. c #5B83B6",
"l. c #6A89AB",
"z. c #6389B9",
"x. c #6A8CBD",
"c. c #6687B4",
"v. c #748BB2",
"b. c #7D8EBD",
"n. c #6D90BE",
"m. c #7191BD",
"M. c #7996BE",
"N. c #7689AB",
"B. c #7787C8",
"V. c #7494C2",
"C. c #7B9BC4",
"Z. c #7C96C7",
"A. c #6D87C2",
"S. c #838383",
"D. c #8499B4",
"F. c #8C95B0",
"G. c #94A3BD",
"H. c #95A3B7",
"J. c #A7A7A7",
"K. c #8699CA",
"L. c #8A82D3",
"P. c #8A82D9",
"I. c #938CD6",
"U. c #938BDB",
"Y. c #9A95D5",
"T. c #9B95D9",
"R. c #9A94DA",
"E. c #939CC0",
"W. c #A29CDB",
"Q. c #A19DCD",
"!. c #82A0C7",
"~. c #85A3C9",
"^. c #8AA6CC",
"/. c #8DA9CC",
"(. c #93ADCE",
"). c #94A7C3",
"_. c #96AED0",
"`. c #95A4D3",
"'. c #9CB4D3",
"]. c #96B0D0",
"[. c #B1AFCF",
"{. c #A5B5CC",
"}. c #A5B3C5",
"|. c #A6A0DD",
" X c #AAA4DD",
".X c #AEA9DF",
"XX c #ABA8D4",
"oX c #B1ACDF",
"OX c #A0B7D5",
"+X c #A2B9D6",
"@X c #A8BAD8",
"#X c #BAB8D6",
"$X c #B1B3C8",
"%X c #8E86E4",
"&X c #938BE4",
"*X c #948BE9",
"=X c #9C94E5",
"-X c #9B94E5",
";X c #A19BE2",
":X c #A39CEC",
">X c #ACA6E3",
",X c #AEA9E2",
"<X c #ACA6EB",
"1X c #A6A1E1",
"2X c #B3AEE5",
"3X c #B2ACEC",
"4X c #B9B5E3",
"5X c #BDB9E5",
"6X c #BEB9E8",
"7X c #B8B3EE",
"8X c #B4AEF0",
"9X c #C2BEE9",
"0X c #C3BFE7",
"qX c #C2BEF1",
"wX c #AEC2DC",
"eX c #AFC1D7",
"rX c #B3C4DD",
"tX c #B7C8DB",
"yX c #BACAE1",
"uX c #B8C6E1",
"iX c #C5C5C5",
"pX c #C8C5DF",
"aX c #D4D6DA",
"sX c #C5C1EA",
"dX c #C9C6E9",
"fX c #CECAEE",
"gX c #C7CAE4",
"hX c #C4D3E5",
"jX c #CDDAE9",
"kX c #CCD7E9",
"lX c #D5D2EE",
"zX c #D2DDEC",
"xX c #CBC8F2",
"cX c #D5D2F3",
"vX c #DDDBF5",
"bX c #DAD7F3",
"nX c #D3CFF4",
"mX c #E1DFF6",
"MX c #D6E0ED",
"NX c #DBE4EE",
"BX c #D6E3F1",
"VX c #DBE6F2",
"CX c #DEE9F4",
"ZX c #E6E9EC",
"AX c #E4ECF5",
"SX c #E9EFF6",
"DX c #EEEDFB",
"FX c #E5E3F7",
"GX c #F0EFFA",
"HX c #EBF1F7",
"JX c #EDF3F9",
"KX c #F2F5FA",
"LX c #F6F9FB",
"PX c #FEFEFF",
"IX c #F4F4F4",
"UX c None",
/* pixels */
"UXUXUXUXUXUXUXUXUXUXUXUXUXUXUXUXUXUXUXUXUXUXUXUXUXUXUXUXx.OX(.UXUXk.UX!.Z UXUXUXUXUXUXUXUXUXUXUX",
"UXUXUXUXUXUXUXUXUXUXUXUXUXUXUXUXUXUXUXUXUXUXUXUXUXUXUX!.PXKXLXhX'.zXSXCXyXC.UXUXUXUXUXUXUXUXUXUX",
"UXUXUXUXUXUXUXUXUXUXUXUXUXUXUXUXUXUXUXUXUXUXUXUXUXUXUXJXSXHXPXLXPXLXJXPXPXPXzX'.UXUXUXUXUXUXUXUX",
"UXUXUXUXUXUXUXUXUXUXUXUXUXUXUXUXUXUXUXUXUXUXUXk.C.'.jXPXJXPXPXPXPXSXVXPXPXPXPXPXrXUXUXUXUXUXUXUX",
"UXUXUXUXUXUXUXUXUXUXUXUXUXUXUXn.'.yXkXNXAXHXPXPXPXPXPXPXLXPXPXPXPXLXCXPXPXPXPXJXLXyXLXKX/.UXUXUX",
"UXUXUXUXUXUXUXUXUXUXUXUXUXC.CXPXPXPXPXPXPXPXPXPXPXPXPXPXPXPXPXPXPXPXLXPXPXPXCXKXPXLXLXHXPXn.UXUX",
"UXUXUXUXUXUXUXUXUXUXUXUXOXPXPXPXPXPXPXPXPXPXPXPXPXPXPXPXPXPXZX$XPXPXPXPXSXAXSXPXPXPXPXJXHX'.UXUX",
"UXUXUXUXUXUXUXUXUXUXUX_.PXPXPXPXPXPXLXJXSXAXNXMXVXAXSXLXPXPXo , H.PXPXJXCXLXPXPXPXPXPXLXJX].UXUX",
"UXUXUXUXUXUXUXUXUXUXz.LXPXPXPXLXHXjX).v.C C J L J A A @XPXPXX   D.PXPXPXPXZXF.IXPXPXPXKXLXk.UXUX",
"UXUXUXUXUXUXUXUXUXUXyXPXPXLXKXtXA i q.XX0XpXgXdXpX#XXXE.LXLXIXZXCXPXPXPXJX$ > S.PXPXPXPX!.UXUXUX",
"UXUXUXUXUXUXUXUXUXUXLXPXPXNXl.1 B W. X4X5X0XpXdXsX0X6XD.JXKXPXPXPXPXPXPXVX:   J.PXPXPX'.UXUXUXUX",
"UXUXUXUXUXUXUXUXUXC.PXPXNXf 1 q.I.Y.|. XoX4X4X5X4X4X2XK.AXVXKXPXPXPXPXPXPXPXLXPXPXPXC.UXUXUXUXUX",
"UXUXUXUXUXUXUXUXUXOXPXPX}.< 3.s.s.I.Y.W.|..X.XoXoX XXXY.G.CXVXJXPXPXPXPXPXPXPXKXLX^.UXUXUXUXUXUX",
"UXUXUXUXUXUXUXUXUXrXPXPXG.n 3.6.5XI.I.I.T.W.W.|.W.W.T.Y.c MXBXHXPXPXPXPXPXHXAXSXyXUXUXUXUXUXUXUX",
"UXUXUXUXUXUXUXUXUXyXPXPXG.n =.8.lXs.s.I.T.|. X XoX XW.I.d.x SXiXo % J.JXkXBXAXyXUXUXUXUXUXUXUXUX",
"UXUXUXUXUXUXUXUX; yXPXPXH.p *.0.s.lXfXXX X X X X|.|. X.XoXa.G.JX. % > LXCXBXl.UXUXUXUXUXUXUXUXUX",
"UXUXUXUXUXUXUXUX! uXPXPXH.n I.q.oXIXGXR.s.s.L.L.s.L.s.0.0.q.c D.aXiXIXgXK 9 E UXUXUXUXUXUXUXUXUX",
"UXUXUXUXUXUXUXg R #XPXPX$XE.LXs.3.5X9Xd.0.d.s.s.s.s.0.7.8.3.N l F.N.v 1 3 5 Y i UXUXUXUXUXUXUXUX",
"UXUXUXUXUXUXUXW I +XPXLXeXc .XM N *.d.I.0.0.d.d.d.0.7.8.3.*. .s n L p O.0.5 7 ~ # UXUXUXUXUXUXUX",
"UXUXUXUXUXUXk R 8 _.PXIXpX= a s } O.;.I.g.7.7.0.0.7.6.3.:.O.N s O.fX2Xt 9Xa 8 Y g UXUXUXUXUXUXUX",
"UXUXUXUXUXUXQ Y 8 Z.LXSXyXx t d M | =.f.T.f.d.d.d.7.6.4.=. .M a f.GXDXs 4 6 y I ! UXUXUXUXUXUXUX",
"UXUXUXUXUXUX~ 7 8 D VXMXtXf 9 y s | *.8.W.W.d.d.d.7.6.;.*.| | =.;.|.>X4 4 4 4 T ~ # UXUXUXUXUXUX",
"UXUXUXUXUX; E 7 0 0 eXrX}.1 q t d } *.;.U.>XR.f.f.d.7.;.4.d.7.:.y q 7.q 5 5 4 7 E = UXUXUXUXUXUX",
"UXUXUXUXUXk E 7 4 6 V J l 9 e a / } O.;.7.2X9X1XT.g.d.U.U.g.*.a e q r.e 6 6 4 8 R j UXUXUXUXUXUX",
"UXUXUXUXUXj R 7 8 7 7 m  .w e / ( | -.4.0.2XvXvXlX0X2X1XP.*.( d y w w./ 7 8 8 7 Y u UXUXUXUXUXUX",
"UXUXUXUXUXb Y 7 7 7 7 | X.e y d [  .-.r.P.9XDXPXLXFX9Xg.;.o.( / y q 4./ 7 7 8 7 Y u UXUXUXUXUXUX",
"UXUXUXUXUXi R 7 7 7 7 &...e y / } o.;.r.U.fXLXPXPXmX>X7.;.o.} s Q e w.^ 7 I 7 7 Y u UXUXUXUXUXUX",
"UXUXUXUXUXi R I 7 7 U @.G z.x.S [  .-.7.;XbXGXLXLXnX;Xr.-.o.} / y e r.Q I I 7 7 R u UXUXUXUXUXUX",
"UXUXUXUXUXk E I 7 U U S H Z k.n.!.K r.;X<X6XsXcXmXfXg.w.-.o.( / Q Q r.e U U 7 7 E v UXUXUXUXUXUX",
"UXUXUXUXUX- ~ U 7 Y Y S Z H k.V.^.+X].A.g.0.U.=X>X2Xg.-.+...( ^ T _ >.Y Y Y Y Y E k UXUXUXUXUXUX",
"UXUXUXUXUXUX~ R 7 Y R m z.z.n.!.OXrXzXjX^.5.i.d.g.;XW.w.+...( ) T ..X.Y Y Y Y Y ~ # UXUXUXUXUXUX",
"UXUXUXUXUXUX) W U U R ! V.n.!.].rXjXMXAXJXFXZ.r.d.g.;Xg.,.o...( ^ >.` Y E T U R ] UXUXUXUXUXUXUX",
"UXUXUXUXUXUXk ~ _ Y R t.kX^.(.rXhXMXSXKXLXPXPXzXA.r.&XR.w.>.+...%.1.! W ) I Y E C.UXUXUXUXUXUXUX",
"UXUXUXUXUXUXUX~ R ..U.<.xX`.'.hXNXSXIXLXPXPXPXPXPXyX9.-Xg.e.<.+.w.>.$.#.T U R S wXUXUXUXUXUXUXUX",
"UXUXUXUXUXUXUXv ~ E >Xi.,.&X2.yXSXKXLXPXPXPXPXPXPXPXLXrXB.i.e.y.8Xt.$.#.! E ! yX_.UXUXUXUXUXUXUX",
"UXUXUXUXUXUXUXUX! ~ _ %.h.cXJX9.hXLXPXPXPXPXPXPXPXPXPXPXLXuXB.xXPX*X&.%.' ~ !.JXz.UXUXUXUXUXUXUX",
"UXUXUXUXUXUXUXUX- ~ #.$.<.7XDX3XB.[.PXPXPXPXPXPXPXPXPXPXPXLXJXwXK.e.<.$.{ !.SXhXUXUXUXUXUXUXUXUX",
"UXUXUXUXUXUXUXUXUXv ' <.w.t.-X*X=XY.v.AXPXPXPXPXPXPXPXLXLXLXKXKXSXkX@X@XkXAXCXV.UXUXUXUXUXUXUXUX",
"UXUXUXUXUXUXUXUXUXUXm $.y.i.j.<X-X:XR.v.G.KXPXPXLXLXLXLXLXJXJXHXAXAXAXCXVXVX'.UXUXUXUXUXUXUXUXUX",
"UXUXUXUXUXUXUXUXUXUXUXv <.j.%X=X<X<X8X7XQ.P E.AXLXLXKXJXHXSXSXCXCXVXBXBXBX'.UXUXUXUXUXUXUXUXUXUX",
"UXUXUXUXUXUXUXUXUXUXUXUXz 1.*X:X3X8X7XxXxX6X[.D.v.{.zXCXCXVXVXVXBXMXBXwXx.UXUXUXUXUXUXUXUXUXUXUX",
"UXUXUXUXUXUXUXUXUXUXUXUXUX* %.%X<XqXsXxXnXvXvXcXgX#XE.v.v.m.M.C.z.l.Z UXUXUXUXUXUXUXUXUXUXUXUXUX",
"UXUXUXUXUXUXUXUXUXUXUXUXUXUXUX- @.%XsXnXvXmXDXDXHXFXbXfX6X%X&.= UXUXUXUXUXUXUXUXUXUXUXUXUXUXUXUX",
"UXUXUXUXUXUXUXUXUXUXUXUXUXUXUXUXUX@ z @.p.*X:X<X:X*Xp.,.z @ UXUXUXUXUXUXUXUXUXUXUXUXUXUXUXUXUXUX",
"UXUXUXUXUXUXUXUXUXUXUXUXUXUXUXUXUXUXUXUXUXO & & @ O UXUXUXUXUXUXUXUXUXUXUXUXUXUXUXUXUXUXUXUXUXUX",
"UXUXUXUXUXUXUXUXUXUXUXUXUXUXUXUXUXUXUXUXUXUXUXUXUXUXUXUXUXUXUXUXUXUXUXUXUXUXUXUXUXUXUXUXUXUXUXUX",
"UXUXUXUXUXUXUXUXUXUXUXUXUXUXUXUXUXUXUXUXUXUXUXUXUXUXUXUXUXUXUXUXUXUXUXUXUXUXUXUXUXUXUXUXUXUXUXUX",
"UXUXUXUXUXUXUXUXUXUXUXUXUXUXUXUXUXUXUXUXUXUXUXUXUXUXUXUXUXUXUXUXUXUXUXUXUXUXUXUXUXUXUXUXUXUXUXUX"
};
